<?xml version="1.0" encoding="UTF-8" standalone="no"?>
<!-- Created with Inkscape (http://www.inkscape.org/) -->

<svg
   xmlns:dc="http://purl.org/dc/elements/1.1/"
   xmlns:cc="http://creativecommons.org/ns#"
   xmlns:rdf="http://www.w3.org/1999/02/22-rdf-syntax-ns#"
   xmlns:svg="http://www.w3.org/2000/svg"
   xmlns="http://www.w3.org/2000/svg"
   xmlns:sodipodi="http://sodipodi.sourceforge.net/DTD/sodipodi-0.dtd"
   xmlns:inkscape="http://www.inkscape.org/namespaces/inkscape"
   width="164"
   height="58"
   viewBox="0 0 164 58.000001"
   id="svg5299"
   version="1.1"
   inkscape:version="0.91 r13725"
   sodipodi:docname="InnoSetupKauaiLabsWizardSmallFileImage.svg">
  <defs
     id="defs5301">
    <clipPath
       clipPathUnits="userSpaceOnUse"
       id="clipPath93491-3">
      <rect
         style="fill:#000000;fill-opacity:0;stroke:#000000;stroke-width:1.5;stroke-linecap:round;stroke-linejoin:round;stroke-miterlimit:4;stroke-dasharray:none;stroke-opacity:0.30158733"
         id="rect93493-2"
         width="846.30652"
         height="231.2061"
         x="-4.2331295"
         y="-128.55595" />
    </clipPath>
    <clipPath
       clipPathUnits="userSpaceOnUse"
       id="clipPath93487-5">
      <rect
         style="fill:#000000;fill-opacity:0;stroke:#000000;stroke-width:1.5;stroke-linecap:round;stroke-linejoin:round;stroke-miterlimit:4;stroke-dasharray:none;stroke-opacity:0.30158733"
         id="rect93489-4"
         width="1049.417"
         height="186.45708"
         x="-5.2490659"
         y="-103.67445" />
    </clipPath>
  </defs>
  <sodipodi:namedview
     id="base"
     pagecolor="#ffffff"
     bordercolor="#666666"
     borderopacity="1.0"
     inkscape:pageopacity="0.0"
     inkscape:pageshadow="2"
     inkscape:zoom="2.8"
     inkscape:cx="125.35719"
     inkscape:cy="82.160276"
     inkscape:document-units="px"
     inkscape:current-layer="layer1"
     showgrid="false"
     units="px"
     inkscape:window-width="1920"
     inkscape:window-height="1017"
     inkscape:window-x="-8"
     inkscape:window-y="-8"
     inkscape:window-maximized="1" />
  <metadata
     id="metadata5304">
    <rdf:RDF>
      <cc:Work
         rdf:about="">
        <dc:format>image/svg+xml</dc:format>
        <dc:type
           rdf:resource="http://purl.org/dc/dcmitype/StillImage" />
        <dc:title></dc:title>
      </cc:Work>
    </rdf:RDF>
  </metadata>
  <g
     inkscape:label="Layer 1"
     inkscape:groupmode="layer"
     id="layer1"
     transform="translate(0,-994.36216)">
    <text
       xml:space="preserve"
       style="font-style:oblique;font-variant:normal;font-weight:bold;font-stretch:normal;font-size:37.82496643px;line-height:125%;font-family:'Franklin Gothic Demi';-inkscape-font-specification:'Franklin Gothic Demi Bold Oblique';text-align:start;letter-spacing:0px;word-spacing:0px;writing-mode:lr-tb;text-anchor:start;display:inline;fill:#000000;fill-opacity:1;stroke:none"
       x="698.99451"
       y="68.818596"
       id="text92029-7"
       sodipodi:linespacing="125%"
       transform="matrix(0.36121557,0,0,0.3600516,-229.84784,1017.6462)"
       clip-path="url(#clipPath93487-5)"
       inkscape:export-xdpi="90"
       inkscape:export-ydpi="90"
       inkscape:export-filename="C:\Users\Scott\Documents\svn_Kauailabs\Logo\text2.png"><tspan
         sodipodi:role="line"
         id="tspan92031-2"
         x="698.99451"
         y="68.818596"><tspan
           style="font-style:oblique;font-variant:normal;font-weight:bold;font-stretch:normal;font-size:37.82496643px;line-height:125%;font-family:'Franklin Gothic Demi';-inkscape-font-specification:'Franklin Gothic Demi Bold Oblique';text-align:start;writing-mode:lr-tb;text-anchor:start;fill:#000000"
           id="tspan92033-6">Build Better Robots</tspan></tspan></text>
    <text
       xml:space="preserve"
       style="font-style:normal;font-variant:normal;font-weight:bold;font-stretch:normal;font-size:5.20299721px;line-height:125%;font-family:sans-serif;-inkscape-font-specification:'sans-serif, Bold';text-align:start;letter-spacing:0px;word-spacing:0px;writing-mode:lr-tb;text-anchor:start;display:inline;fill:#000000;fill-opacity:1;stroke:none;stroke-width:1px;stroke-linecap:butt;stroke-linejoin:miter;stroke-opacity:1"
       x="155.24323"
       y="953.70929"
       id="text3585"
       sodipodi:linespacing="125%"
       transform="scale(0.91977621,1.087221)"
       inkscape:transform-center-x="4.5285589"
       inkscape:transform-center-y="-0.33525272"><tspan
         sodipodi:role="line"
         id="tspan3388"
         x="155.24323"
         y="953.70929">R</tspan></text>
    <path
       style="display:inline;opacity:1;fill:#000000;fill-opacity:1;stroke:#ffffff;stroke-width:0.02749383;stroke-miterlimit:4;stroke-dasharray:none;stroke-opacity:1"
       d="m 144.35252,1038.2723 c -0.0547,0 -0.21025,-0.027 -0.34567,-0.049 -0.73198,-0.1213 -1.39275,-0.4493 -1.91756,-0.9518 -0.54447,-0.5213 -0.86847,-1.1155 -1.0034,-1.8403 -0.0513,-0.2755 -0.0459,-0.8298 0.0108,-1.1148 0.18074,-0.9079 0.69999,-1.6667 1.49899,-2.1904 1.30292,-0.854 3.07982,-0.7937 4.3185,0.1467 0.15998,0.1214 0.48865,0.4413 0.60941,0.5931 0.78374,0.985 0.94663,2.2681 0.42919,3.3808 -0.48321,1.0391 -1.47639,1.7742 -2.67555,1.9803 -0.22344,0.038 -0.71884,0.063 -0.92475,0.046 z m 0.85513,-0.6136 c 1.09169,-0.1954 1.97197,-0.9131 2.32405,-1.8948 0.0981,-0.2736 0.13811,-0.5218 0.13858,-0.8598 2.5e-4,-0.3459 -0.0379,-0.576 -0.14818,-0.8887 -0.328,-0.93 -1.16852,-1.6308 -2.22618,-1.8562 -0.26236,-0.056 -0.76567,-0.075 -1.04699,-0.04 -1.18735,0.1486 -2.16437,0.9233 -2.50875,1.9893 -0.15522,0.4804 -0.15971,1.0354 -0.0125,1.5411 0.2733,0.9387 1.10487,1.7057 2.12315,1.9583 0.41519,0.103 0.95247,0.1231 1.3568,0.051 z"
       id="path5383"
       inkscape:connector-curvature="0" />
    <path
       style="display:inline;opacity:1;fill:#000000;fill-opacity:1;stroke:#000000;stroke-width:0.2199506;stroke-miterlimit:4;stroke-dasharray:none;stroke-opacity:1"
       d="m 135.17708,1042.1057 c -0.45798,-0.231 -0.80697,-0.5526 -0.98354,-0.9063 -0.15052,-0.3016 -0.25791,-0.56 -0.23864,-0.5742 0.0192,-0.014 0.37089,-0.07 0.78139,-0.1235 0.63296,-0.083 0.76033,-0.054 0.83831,0.192 0.20964,0.6606 1.87924,0.9054 2.38241,0.3495 0.46114,-0.5096 0.1957,-0.9095 -0.75153,-1.1322 -1.97122,-0.4636 -2.49962,-0.9026 -2.49962,-2.0766 0,-1.3608 0.99375,-2.2149 2.56958,-2.2084 1.11135,0 2.10394,0.4565 2.44313,1.1124 0.30202,0.5841 0.27488,0.6333 -0.43062,0.7809 -0.44558,0.093 -0.58903,0.042 -0.94693,-0.3367 -0.48512,-0.5135 -1.37924,-0.6114 -1.79419,-0.1964 -0.56474,0.5647 -0.24783,0.9066 1.13694,1.2265 1.5664,0.3619 2.11317,0.8785 2.11317,1.9966 0,1.8082 -2.64314,2.8932 -4.61986,1.8964 z"
       id="path5385"
       inkscape:connector-curvature="0" />
    <path
       style="display:inline;opacity:1;fill:#000000;fill-opacity:1;stroke:#000000;stroke-width:0.2199506;stroke-miterlimit:4;stroke-dasharray:none;stroke-opacity:1"
       d="m 130.76116,1042.2969 c -0.20077,-0.081 -0.4684,-0.3938 -0.59474,-0.6962 -0.2007,-0.4803 -0.19989,-0.7167 0.006,-1.8719 0.49775,-2.7881 0.50631,-2.5154 -0.0789,-2.5154 -0.45766,0 -0.50531,-0.041 -0.42025,-0.3579 0.0528,-0.1969 0.0969,-0.5191 0.0981,-0.716 0.002,-0.309 0.0861,-0.3579 0.61681,-0.3579 l 0.61465,0 0.20258,-0.9546 0.20257,-0.9546 0.78164,0 0.78164,0 -0.10799,0.9546 -0.108,0.9546 0.75637,0 0.75637,0 -0.0994,0.4971 c -0.0547,0.2735 -0.0994,0.5957 -0.0994,0.716 0,0.1581 -0.23385,0.2187 -0.84338,0.2187 l -0.84337,0 -0.27366,1.7013 c -0.31386,1.9512 -0.24895,2.1355 0.76181,2.1642 0.5639,0.016 0.58522,0.037 0.49617,0.4819 -0.0512,0.2559 -0.0931,0.5637 -0.0931,0.6841 0,0.2571 -1.90355,0.2966 -2.51283,0.052 z"
       id="path5387"
       inkscape:connector-curvature="0" />
    <path
       style="display:inline;opacity:1;fill:#000000;fill-opacity:1;stroke:#000000;stroke-width:0.2199506;stroke-miterlimit:4;stroke-dasharray:none;stroke-opacity:1"
       d="m 123.92281,1042.1266 c -1.74375,-0.8632 -2.02269,-3.6763 -0.53667,-5.4124 0.67885,-0.793 1.33903,-1.0917 2.41312,-1.0917 0.91074,0 1.47078,0.2407 2.09511,0.9006 0.55495,0.5865 0.76583,1.1682 0.76583,2.1126 0,2.7865 -2.47536,4.6105 -4.73739,3.4909 z m 2.0747,-1.0937 c 0.46222,-0.3636 0.79165,-1.5024 0.81043,-2.8017 0.0143,-0.9894 -0.33612,-1.495 -1.03614,-1.495 -0.90612,0 -1.43409,1.0772 -1.46862,2.9964 -0.0158,0.8788 0.0299,1.0467 0.35747,1.3125 0.47873,0.3885 0.83151,0.3853 1.33686,-0.012 z"
       id="path5389"
       inkscape:connector-curvature="0" />
    <path
       style="display:inline;opacity:1;fill:#000000;fill-opacity:1;stroke:#000000;stroke-width:0.2199506;stroke-miterlimit:4;stroke-dasharray:none;stroke-opacity:1"
       d="m 117.42611,1042.3077 c -0.18479,-0.075 -0.49518,-0.3381 -0.68974,-0.5855 -0.37736,-0.4797 -0.39296,-0.4737 -0.88468,0.3442 -0.10057,0.1672 -0.31189,0.2465 -0.56674,0.2126 l -0.40638,-0.054 0.71798,-4.4149 0.71798,-4.4149 0.92568,0 c 0.87714,0 0.92159,0.019 0.84736,0.358 -0.16781,0.7666 -0.40501,2.261 -0.40501,2.5514 0,0.2657 0.0732,0.2412 0.56237,-0.1883 0.9723,-0.8537 2.23956,-0.5764 2.86138,0.6261 0.29709,0.5745 0.30108,2.5549 0.007,3.3798 -0.64998,1.8219 -2.24583,2.7679 -3.68701,2.1856 z m 1.27895,-1.3157 c 0.724,-0.6418 1.15007,-3.1784 0.6458,-3.8449 -0.14225,-0.1879 -0.42438,-0.3049 -0.73567,-0.3049 -0.84741,0 -1.27098,0.7839 -1.50449,2.7843 -0.0967,0.8282 -0.0718,0.9352 0.30562,1.3126 0.50418,0.5042 0.76742,0.515 1.28874,0.053 z"
       id="path5391"
       inkscape:connector-curvature="0" />
    <path
       style="display:inline;opacity:1;fill:#000000;fill-opacity:1;stroke:#000000;stroke-width:0.2199506;stroke-miterlimit:4;stroke-dasharray:none;stroke-opacity:1"
       d="m 109.22503,1042.1508 c -1.63711,-0.8898 -2.02216,-3.0555 -0.88008,-4.9497 1.5273,-2.5331 5.18153,-1.9509 5.60807,0.8934 0.20966,1.3981 -0.38657,2.8409 -1.56633,3.7904 -0.79127,0.6367 -2.25325,0.7597 -3.16166,0.2659 z m 2.16171,-1.1726 c 0.66344,-0.6635 0.97426,-3.1825 0.47978,-3.8885 -0.33383,-0.4766 -1.08431,-0.4679 -1.57041,0.018 -0.71788,0.7179 -0.99155,3.3416 -0.40927,3.9239 0.42438,0.4244 1.04408,0.4022 1.4999,-0.053 z"
       id="path5393"
       inkscape:connector-curvature="0" />
    <path
       style="display:inline;opacity:1;fill:#000000;fill-opacity:1;stroke:#000000;stroke-width:0.2199506;stroke-miterlimit:4;stroke-dasharray:none;stroke-opacity:1"
       d="m 98.958159,1041.9466 c 0.0459,-0.1969 0.38843,-2.2089 0.76118,-4.4711 l 0.677731,-4.1131 2.39822,0.056 c 2.68364,0.063 3.18335,0.2235 3.86931,1.2414 0.75239,1.1165 0.26515,2.9145 -0.94014,3.4692 -0.33126,0.1525 -0.60289,0.3846 -0.60362,0.5159 -4.9e-4,0.1312 0.21095,0.9545 0.4704,1.8296 0.25946,0.875 0.47299,1.6446 0.47451,1.7102 0.002,0.066 -0.42478,0.1194 -0.94735,0.1194 l -0.95013,0 -0.24309,-0.8751 -0.48618,-1.75 -0.24308,-0.8751 -0.92852,0 -0.9285,0 -0.10352,0.7558 c -0.0569,0.4156 -0.1814,1.2031 -0.2766,1.75 l -0.17309,0.9944 -0.955491,0 c -0.90954,0 -0.95148,-0.017 -0.87204,-0.358 z m 5.797831,-5.1335 c 0.43405,-0.5006 0.4572,-1.0328 0.066,-1.516 -0.24793,-0.3062 -0.48462,-0.3717 -1.56794,-0.4345 l -1.27592,-0.074 -0.11102,0.837 c -0.0611,0.4602 -0.15425,1.053 -0.20709,1.3172 l -0.0961,0.4804 1.41706,-0.099 c 1.26438,-0.088 1.45563,-0.1431 1.77503,-0.5116 z"
       id="path5395"
       inkscape:connector-curvature="0" />
    <path
       style="display:inline;opacity:1;fill:#000000;fill-opacity:1;stroke:#000000;stroke-width:0.2199506;stroke-miterlimit:4;stroke-dasharray:none;stroke-opacity:1"
       d="m 90.633879,1042.1852 c 0,-0.066 0.2292,-1.5333 0.51217,-3.2615 l 0.51445,-3.1421 0.8618,0 0.8618,0 -0.0931,0.7557 c -0.0774,0.6278 -0.0608,0.7042 0.0977,0.4512 0.41979,-0.67 1.01017,-1.2012 1.44996,-1.3046 0.3963,-0.093 0.44832,-0.069 0.35797,0.1664 -0.0582,0.1515 -0.10571,0.5918 -0.10571,0.9784 0,0.6599 -0.0268,0.7031 -0.43752,0.7065 -0.98671,0.01 -1.5181,0.8925 -1.90761,3.1752 l -0.27208,1.5941 -0.91873,0 c -0.50531,0 -0.91978,-0.054 -0.92107,-0.1193 z"
       id="path5397"
       inkscape:connector-curvature="0" />
    <path
       style="display:inline;opacity:1;fill:#000000;fill-opacity:1;stroke:#000000;stroke-width:0.2199506;stroke-miterlimit:4;stroke-dasharray:none;stroke-opacity:1"
       d="m 84.981509,1042.1672 c -0.78084,-0.4761 -1.31633,-1.2296 -1.43465,-2.0186 -0.21713,-1.4479 0.25492,-2.8073 1.29062,-3.7166 0.74629,-0.6552 1.16667,-0.8095 2.20589,-0.8095 1.38702,0 2.48833,0.9911 2.7047,2.4341 0.1834,1.2228 0.17929,1.2251 -2.23125,1.2251 -2.32222,0 -2.23518,-0.039 -2.14363,0.9546 0.0574,0.6247 0.46075,0.9545 1.16685,0.9545 0.49314,0 0.72368,-0.1029 1.07688,-0.4811 0.40317,-0.4315 0.51627,-0.4704 1.09797,-0.3774 0.35671,0.057 0.64853,0.1773 0.64853,0.2673 0,0.3393 -0.83761,1.2427 -1.43477,1.5473 -0.81974,0.4182 -2.27817,0.4283 -2.94714,0.02 z m 3.10916,-4.282 c 0,-1.1918 -1.33783,-1.6054 -2.13367,-0.6596 -0.22656,0.2693 -0.41189,0.6272 -0.41189,0.7955 0,0.2764 0.123,0.306 1.27275,0.306 l 1.27281,0 0,-0.4419 z"
       id="path5399"
       inkscape:connector-curvature="0" />
    <path
       style="display:inline;opacity:1;fill:#000000;fill-opacity:1;stroke:#000000;stroke-width:0.2199506;stroke-miterlimit:4;stroke-dasharray:none;stroke-opacity:1"
       d="m 79.738099,1042.2799 c -0.80849,-0.4422 -0.90613,-1.3123 -0.41241,-3.6744 l 0.29099,-1.3921 -0.53191,0 c -0.5124,0 -0.52869,-0.019 -0.44258,-0.517 0.14919,-0.8635 0.19153,-0.9148 0.7556,-0.9148 0.53121,0 0.55013,-0.023 0.76714,-0.9148 l 0.22252,-0.9148 0.76591,-0.049 0.76597,-0.049 -0.11187,0.9639 -0.11188,0.964 0.73153,0 c 0.78448,0 0.81119,0.039 0.63213,0.9347 -0.0952,0.4758 -0.13302,0.4972 -0.88001,0.4972 -0.48294,0 -0.80598,0.076 -0.84716,0.1989 -0.0363,0.1093 -0.16723,0.8615 -0.29029,1.6714 -0.26171,1.7218 -0.17086,1.9688 0.73352,1.9944 0.61907,0.018 0.65099,0.076 0.48845,0.8883 l -0.0995,0.4972 -1.05398,-0.01 c -0.5797,0 -1.19719,-0.083 -1.37221,-0.1789 z"
       id="path5401"
       inkscape:connector-curvature="0" />
    <path
       style="display:inline;opacity:1;fill:#000000;fill-opacity:1;stroke:#000000;stroke-width:0.2199506;stroke-miterlimit:4;stroke-dasharray:none;stroke-opacity:1"
       d="m 74.806129,1042.2799 c -0.90086,-0.4927 -0.93015,-1.3746 -0.15656,-4.7085 0.0737,-0.3177 0.0217,-0.358 -0.46192,-0.358 -0.43391,0 -0.53372,-0.057 -0.48991,-0.2784 0.23283,-1.1772 0.21667,-1.1534 0.78706,-1.1534 0.51088,0 0.55944,-0.045 0.72239,-0.6762 0.0961,-0.3719 0.21104,-0.8014 0.2555,-0.9546 0.0625,-0.2152 0.25397,-0.2784 0.84422,-0.2784 l 0.76339,0 -0.13085,0.6762 c -0.23406,1.2101 -0.22352,1.233 0.57133,1.233 0.63699,0 0.71565,0.039 0.71372,0.3579 -0.006,0.9165 -0.14743,1.0739 -0.96793,1.0739 -0.86186,0 -0.78712,-0.1134 -1.09393,1.66 -0.20987,1.213 -0.20752,1.9532 0.007,2.0855 0.0935,0.058 0.41564,0.1119 0.71595,0.1204 0.57777,0.016 0.66352,0.2139 0.4458,1.0264 -0.0875,0.3262 -0.18937,0.3575 -1.15126,0.3531 -0.58047,0 -1.19854,-0.083 -1.37356,-0.1789 z"
       id="path5403"
       inkscape:connector-curvature="0" />
    <path
       style="display:inline;opacity:1;fill:#000000;fill-opacity:1;stroke:#000000;stroke-width:0.2199506;stroke-miterlimit:4;stroke-dasharray:none;stroke-opacity:1"
       d="m 67.958212,1042.1672 c -0.780849,-0.4761 -1.31633,-1.2296 -1.434648,-2.0186 -0.217134,-1.4479 0.254912,-2.8073 1.290614,-3.7166 0.746289,-0.6552 1.166671,-0.8095 2.205891,-0.8095 0.91481,0 1.63719,0.3703 2.19693,1.1263 0.37586,0.5076 0.63734,1.6145 0.50549,2.1398 l -0.0987,0.3931 -2.13051,0 c -2.321978,0 -2.234937,-0.039 -2.143387,0.9546 0.0574,0.6247 0.460737,0.9545 1.166847,0.9545 0.49314,0 0.72368,-0.1029 1.07688,-0.4811 0.40316,-0.4315 0.51627,-0.4704 1.09796,-0.3774 0.35672,0.057 0.64854,0.1773 0.64854,0.2673 0,0.3393 -0.83761,1.2427 -1.43477,1.5473 -0.81974,0.4182 -2.27817,0.4283 -2.94714,0.02 z m 3.109157,-4.282 c 0,-1.1918 -1.33783,-1.6054 -2.13367,-0.6596 -0.22656,0.2693 -0.411892,0.6272 -0.411892,0.7955 0,0.2764 0.123002,0.306 1.272752,0.306 l 1.27281,0 0,-0.4419 z"
       id="path5405"
       inkscape:connector-curvature="0" />
    <path
       style="display:inline;opacity:1;fill:#000000;fill-opacity:1;stroke:#000000;stroke-width:0.2199506;stroke-miterlimit:4;stroke-dasharray:none;stroke-opacity:1"
       d="m 57.544145,1042.1337 c 0,-0.1844 1.217163,-7.5695 1.370333,-8.3145 l 0.09272,-0.4509 2.56975,0.053 c 2.876091,0.06 3.380117,0.2149 3.839922,1.1839 0.546903,1.1525 0.150652,2.2958 -0.967053,2.7902 -0.645365,0.2855 -0.818334,0.6133 -0.323504,0.6133 0.109709,0 0.3976,0.2068 0.639743,0.4596 0.967874,1.0103 0.534661,2.7788 -0.851956,3.4781 -0.656845,0.3312 -0.921481,0.3579 -3.539907,0.3579 -1.910442,0 -2.830049,-0.055 -2.830049,-0.1708 z m 4.986502,-1.4377 c 0.388462,-0.177 0.74096,-0.7433 0.74096,-1.1904 0,-0.1311 -0.175721,-0.4141 -0.390454,-0.6289 -0.344648,-0.3446 -0.529623,-0.3905 -1.573995,-0.3905 -1.342569,0 -1.30233,-0.039 -1.467507,1.4211 l -0.109239,0.9654 1.206267,0 c 0.663466,0 1.380759,-0.079 1.593968,-0.1767 z m 0.74096,-3.9598 c 0.445864,-0.4459 0.426885,-1.3378 -0.03514,-1.6615 -0.373527,-0.2617 -2.422143,-0.3596 -2.56852,-0.1229 -0.04217,0.069 -0.127514,0.5699 -0.189017,1.1137 l -0.111878,0.9888 1.293311,0 c 1.081213,0 1.345499,-0.052 1.61154,-0.3181 z"
       id="path5407"
       inkscape:connector-curvature="0" />
    <path
       style="display:inline;opacity:1;fill:#000000;fill-opacity:1;stroke:#000000;stroke-width:0.2199506;stroke-miterlimit:4;stroke-dasharray:none;stroke-opacity:1"
       d="m 47.693029,1042.125 c -0.688651,-0.5417 -0.94462,-1.2139 -0.945557,-2.4829 -2.43e-4,-0.9863 0.07433,-1.2942 0.542805,-2.2273 0.653332,-1.3014 1.295943,-1.7987 2.324382,-1.7987 0.53068,0 0.793909,0.094 1.090117,0.3905 0.214791,0.2148 0.390512,0.4797 0.390512,0.5887 0,0.1219 0.05271,0.14 0.137764,0.047 0.07574,-0.083 0.223518,-0.7239 0.328425,-1.424 0.288183,-1.9235 0.225802,-1.8296 1.215055,-1.8296 0.475384,0 0.864313,0.041 0.864313,0.09 0,0.05 -0.322156,2.0137 -0.715947,4.3647 -0.393733,2.351 -0.715947,4.3151 -0.715947,4.3646 0,0.05 -0.391917,0.09 -0.87105,0.09 l -0.871052,0 0.102037,-0.5171 0.102092,-0.517 -0.663348,0.5966 c -0.792151,0.7125 -1.624132,0.8075 -2.314601,0.2644 z m 2.436318,-1.0936 c 0.368548,-0.1972 0.601904,-0.7953 0.794262,-2.0356 0.186321,-1.2015 0,-1.9056 -0.547548,-2.0424 -0.658428,-0.1653 -0.944385,4e-4 -1.326872,0.7723 -0.44686,0.901 -0.56389,2.7555 -0.201554,3.1943 0.242555,0.2938 0.843464,0.346 1.281712,0.1114 z"
       id="path5409"
       inkscape:connector-curvature="0" />
    <path
       style="display:inline;opacity:1;fill:#000000;fill-opacity:1;stroke:#000000;stroke-width:0.2199506;stroke-miterlimit:4;stroke-dasharray:none;stroke-opacity:1"
       d="m 43.028212,1041.9487 c 0.04686,-0.2016 0.389341,-2.21 0.760581,-4.4632 l 0.675004,-4.0968 0.902624,0 0.902622,0 -0.734047,4.415 -0.734048,4.4149 -0.929155,0.048 c -0.898522,0.047 -0.926344,0.036 -0.843581,-0.3182 z"
       id="path5411"
       inkscape:connector-curvature="0" />
    <path
       style="display:inline;opacity:1;fill:#000000;fill-opacity:1;stroke:#000000;stroke-width:0.2199506;stroke-miterlimit:4;stroke-dasharray:none;stroke-opacity:1"
       d="m 39.33209,1042.0993 c 0.0059,-0.1094 0.24021,-1.5592 0.521717,-3.2217 l 0.511818,-3.0229 0.955631,-0.046 0.95569,-0.046 -0.550243,3.2682 -0.550182,3.2682 -0.927164,0 c -0.640973,0 -0.924121,-0.061 -0.917267,-0.1989 z"
       id="path5413"
       inkscape:connector-curvature="0" />
    <path
       style="display:inline;opacity:1;fill:#000000;fill-opacity:1;stroke:#000000;stroke-width:0.2199506;stroke-miterlimit:4;stroke-dasharray:none;stroke-opacity:1"
       d="m 40.559971,1034.6615 0.184391,-0.9546 c 0.09014,-0.4669 0.112871,-0.4773 1.044839,-0.4773 0.831164,0 0.942628,0.036 0.873979,0.2785 -0.04334,0.1531 -0.125931,0.5827 -0.183804,0.9545 l -0.105138,0.6762 -0.953231,0 -0.953229,0 0.09219,-0.4773 z"
       id="path5415"
       inkscape:connector-curvature="0" />
    <path
       style="display:inline;opacity:1;fill:#000000;fill-opacity:1;stroke:#000000;stroke-width:0.2199506;stroke-miterlimit:4;stroke-dasharray:none;stroke-opacity:1"
       d="m 32.776101,1042.0732 c -0.211217,-0.2112 -0.428467,-0.5611 -0.482765,-0.7775 -0.05447,-0.2164 0.0861,-1.4933 0.311964,-2.8377 0.225919,-1.3443 0.410602,-2.4979 0.410485,-2.5635 -1.17e-4,-0.066 0.417221,-0.1193 0.927399,-0.1193 l 0.927691,0 -0.393147,2.3726 c -0.216254,1.305 -0.349568,2.4863 -0.296266,2.6251 0.0984,0.2564 0.665691,0.3333 1.133813,0.1536 0.449143,-0.1723 0.75859,-1.0291 1.112259,-3.0794 l 0.343652,-1.9924 0.920839,-0.048 0.920838,-0.048 -0.09102,0.4459 c -0.04979,0.2453 -0.271958,1.5556 -0.493191,2.9119 -0.57373,3.5184 -0.42841,3.1819 -1.374609,3.1819 l -0.810193,0 0.100863,-0.5966 0.100864,-0.5966 -0.339377,0.3978 c -0.878548,1.0294 -2.21157,1.289 -2.930095,0.5705 z"
       id="path5417"
       inkscape:connector-curvature="0" />
    <path
       style="display:inline;opacity:1;fill:#000000;fill-opacity:1;stroke:#000000;stroke-width:0.2199506;stroke-miterlimit:4;stroke-dasharray:none;stroke-opacity:1"
       d="m 23.15155,1042.0629 c 0,-0.2133 1.160522,-7.1928 1.369572,-8.2366 l 0.08757,-0.4376 2.174962,0 c 1.196193,0 2.455003,0.069 2.797308,0.1482 0.893367,0.2072 1.541252,0.9148 1.640066,1.791 0.110646,0.9817 -0.249876,1.6164 -1.191977,2.0989 -0.738908,0.3783 -0.745234,0.388 -0.354547,0.5412 1.683762,0.6606 1.590103,3.0894 -0.152995,3.9684 -0.656846,0.3312 -0.921482,0.3579 -3.539906,0.3579 -2.391568,0 -2.830051,-0.036 -2.830051,-0.2352 z m 4.986503,-1.3733 c 0.388403,-0.1769 0.740959,-0.7433 0.740959,-1.1904 0,-0.1311 -0.175722,-0.4141 -0.390512,-0.6289 -0.345409,-0.3454 -0.528687,-0.3905 -1.587935,-0.3905 -1.342863,0 -1.211013,-0.1367 -1.496209,1.5512 l -0.141104,0.8353 1.24358,0 c 0.683966,0 1.418012,-0.08 1.631221,-0.1767 z m 0.740959,-3.9598 c 0.196222,-0.1962 0.318231,-0.5304 0.318231,-0.8714 0,-0.808 -0.474038,-1.0657 -1.850053,-1.0057 l -1.087071,0.047 -0.175604,1.0739 -0.175604,1.0739 1.325934,0 c 1.113839,0 1.376894,-0.051 1.644167,-0.3182 z"
       id="path5419"
       inkscape:connector-curvature="0"
       inkscape:export-filename="C:\Users\Scott\Documents\svn_Kauailabs\Marketing\MediaKit\RenderedVectors\Logo_Type_KauaiLabs_BuildBetterRobots_TrademarkSmaller_WhiteFill.png"
       inkscape:export-xdpi="90"
       inkscape:export-ydpi="90" />
    <text
       xml:space="preserve"
       style="font-style:normal;font-variant:normal;font-weight:normal;font-stretch:normal;font-size:68.30427551px;line-height:125%;font-family:Impact;-inkscape-font-specification:Impact;text-align:start;letter-spacing:0px;word-spacing:0px;writing-mode:lr-tb;text-anchor:start;display:inline;fill:#000000;fill-opacity:1;stroke:none"
       x="187.24763"
       y="86.674934"
       id="text13333-4"
       sodipodi:linespacing="125%"
       transform="matrix(0.40191749,0,0,0.48523503,-53.934774,986.27019)"
       clip-path="url(#clipPath93491-3)"
       inkscape:export-filename="C:\Users\Scott\Documents\svn_Kauailabs\Logo\text2.png"
       inkscape:export-xdpi="90"
       inkscape:export-ydpi="90"><tspan
         sodipodi:role="line"
         id="tspan13335-7"
         x="187.24763"
         y="86.674934"
         style="font-style:normal;font-variant:normal;font-weight:normal;font-stretch:normal;font-size:68.30427551px;line-height:125%;font-family:Impact;-inkscape-font-specification:Impact;text-align:start;writing-mode:lr-tb;text-anchor:start">Kaua'i Labs</tspan></text>
  </g>
</svg>
